<mxfile host="65bd71144e">
    <diagram id="FpxeIAFaRYqNk3HpP0q2" name="Page-1">
        <mxGraphModel dx="1028" dy="705" grid="1" gridSize="10" guides="1" tooltips="1" connect="1" arrows="1" fold="1" page="1" pageScale="1" pageWidth="850" pageHeight="1100" math="0" shadow="0">
            <root>
                <mxCell id="0"/>
                <mxCell id="1" parent="0"/>
                <mxCell id="2" value="&lt;ol id=&quot;DXLCZTA1CMGJUGMLH677&quot; class=&quot;decimal shortanswer&quot; style=&quot;box-sizing: border-box; line-height: 1.8; color: rgb(87, 87, 87); padding: 0px 0px 0px 40px; clear: left; margin: 0px 0px 11px; list-style-type: decimal; font-size: 16px; font-style: normal; font-weight: 400; letter-spacing: normal; text-indent: 0px; text-transform: none; word-spacing: 0px; background-color: rgb(255, 255, 255);&quot;&gt;&lt;li id=&quot;ZZBLUAUFBX71AMGTL176&quot; style=&quot;box-sizing: border-box ; font-family: , &amp;quot;cambria&amp;quot; , &amp;quot;times new roman&amp;quot; , &amp;quot;times&amp;quot; , serif ; line-height: 1.6 ; color: rgb(87 , 87 , 87) ; margin: 0px 0px 10px ; padding: 0px ; list-style: decimal&quot;&gt;&lt;p id=&quot;FVJKL7MTR0C0CA2XD052&quot; style=&quot;box-sizing: border-box ; font-family: , &amp;quot;cambria&amp;quot; , &amp;quot;times new roman&amp;quot; , &amp;quot;times&amp;quot; , serif ; line-height: 1.6 ; color: rgb(87 , 87 , 87) ; margin: 0px ; padding: 0px&quot;&gt;Create the logic for a Magic 8 Ball game in which the user enters a question such as&lt;span&gt;&amp;nbsp;&lt;/span&gt;&lt;em style=&quot;box-sizing: border-box ; font-style: italic&quot;&gt;What does my future hold?&lt;/em&gt;&lt;span&gt;&amp;nbsp;&lt;/span&gt;The computer randomly selects one of eight possible vague answers, such as&lt;span&gt;&amp;nbsp;&lt;/span&gt;&lt;em style=&quot;box-sizing: border-box ; font-style: italic&quot;&gt;It remains to be seen&lt;/em&gt;.&lt;/p&gt;&lt;/li&gt;&lt;/ol&gt;" style="text;whiteSpace=wrap;html=1;" vertex="1" parent="1">
                    <mxGeometry x="40" y="30" width="550" height="130" as="geometry"/>
                </mxCell>
                <mxCell id="5" value="" style="edgeStyle=none;html=1;" edge="1" parent="1" source="3" target="4">
                    <mxGeometry relative="1" as="geometry"/>
                </mxCell>
                <mxCell id="3" value="start" style="strokeWidth=2;html=1;shape=mxgraph.flowchart.start_1;whiteSpace=wrap;" vertex="1" parent="1">
                    <mxGeometry x="370" y="330" width="100" height="60" as="geometry"/>
                </mxCell>
                <mxCell id="7" value="" style="edgeStyle=none;html=1;" edge="1" parent="1" source="4" target="6">
                    <mxGeometry relative="1" as="geometry"/>
                </mxCell>
                <mxCell id="4" value="Declarations&lt;br&gt;&lt;br&gt;string user&lt;br&gt;string answer[8] = {'This is not what I expected', 'Can you come back in 30 minutes?', 'The future is bright', 'Not everything can be seen', 'It remains to be seen', 'I can't see that far ahead', 'My name is Compy, what's yours?'}&lt;br&gt;num random" style="whiteSpace=wrap;html=1;strokeWidth=2;" vertex="1" parent="1">
                    <mxGeometry x="180" y="470" width="480" height="120" as="geometry"/>
                </mxCell>
                <mxCell id="9" value="" style="edgeStyle=none;html=1;" edge="1" parent="1" source="6" target="8">
                    <mxGeometry relative="1" as="geometry"/>
                </mxCell>
                <mxCell id="6" value="random = random(8)" style="whiteSpace=wrap;html=1;strokeWidth=2;" vertex="1" parent="1">
                    <mxGeometry x="360" y="700" width="120" height="60" as="geometry"/>
                </mxCell>
                <mxCell id="11" value="" style="edgeStyle=none;html=1;" edge="1" parent="1" source="8" target="10">
                    <mxGeometry relative="1" as="geometry"/>
                </mxCell>
                <mxCell id="8" value="output &quot;Ask the computer a question&quot;" style="shape=parallelogram;perimeter=parallelogramPerimeter;whiteSpace=wrap;html=1;fixedSize=1;strokeWidth=2;" vertex="1" parent="1">
                    <mxGeometry x="360" y="840" width="120" height="60" as="geometry"/>
                </mxCell>
                <mxCell id="13" value="" style="edgeStyle=none;html=1;" edge="1" parent="1" source="10" target="12">
                    <mxGeometry relative="1" as="geometry"/>
                </mxCell>
                <mxCell id="10" value="input user" style="shape=parallelogram;perimeter=parallelogramPerimeter;whiteSpace=wrap;html=1;fixedSize=1;strokeWidth=2;" vertex="1" parent="1">
                    <mxGeometry x="360" y="930" width="120" height="60" as="geometry"/>
                </mxCell>
                <mxCell id="15" value="" style="edgeStyle=none;html=1;" edge="1" parent="1" source="12" target="14">
                    <mxGeometry relative="1" as="geometry"/>
                </mxCell>
                <mxCell id="12" value="output answer[random]" style="shape=parallelogram;perimeter=parallelogramPerimeter;whiteSpace=wrap;html=1;fixedSize=1;strokeWidth=2;" vertex="1" parent="1">
                    <mxGeometry x="360" y="1020" width="120" height="60" as="geometry"/>
                </mxCell>
                <mxCell id="17" value="" style="edgeStyle=none;html=1;" edge="1" parent="1" source="14" target="16">
                    <mxGeometry relative="1" as="geometry"/>
                </mxCell>
                <mxCell id="14" value="output &quot;End of program&quot;" style="shape=parallelogram;perimeter=parallelogramPerimeter;whiteSpace=wrap;html=1;fixedSize=1;strokeWidth=2;" vertex="1" parent="1">
                    <mxGeometry x="360" y="1140" width="120" height="60" as="geometry"/>
                </mxCell>
                <mxCell id="16" value="" style="ellipse;whiteSpace=wrap;html=1;strokeWidth=2;" vertex="1" parent="1">
                    <mxGeometry x="360" y="1280" width="120" height="60" as="geometry"/>
                </mxCell>
            </root>
        </mxGraphModel>
    </diagram>
</mxfile>